<svg xmlns="http://www.w3.org/2000/svg" width="36.149" height="36.149" viewBox="0 0 36.149 36.149">
  <path id="Icon_awesome-dribbble" data-name="Icon awesome-dribbble" d="M18.7.625A18.075,18.075,0,1,0,36.774,18.7,18.1,18.1,0,0,0,18.7.625ZM30.65,8.96a15.365,15.365,0,0,1,3.486,9.617,36.079,36.079,0,0,0-10.75-.5c-.419-1.023-.815-1.924-1.357-3.033A20.565,20.565,0,0,0,30.65,8.96ZM28.934,7.175c-.278.4-2.6,3.519-8.091,5.577a82.408,82.408,0,0,0-5.761-9.038A15.4,15.4,0,0,1,28.934,7.175Zm-16.8-2.423A98.508,98.508,0,0,1,17.86,13.68,57.586,57.586,0,0,1,3.587,15.561,15.5,15.5,0,0,1,12.136,4.752ZM3.261,18.723c0-.158,0-.315.008-.472a56.95,56.95,0,0,0,15.867-2.2c.442.865.864,1.743,1.252,2.62A23.913,23.913,0,0,0,7.23,29.046,15.377,15.377,0,0,1,3.261,18.723ZM9.223,30.9c1.613-3.3,5.989-7.552,12.213-9.676A64.174,64.174,0,0,1,24.73,32.935,15.407,15.407,0,0,1,9.223,30.9Zm18.1.619a66.634,66.634,0,0,0-3-11.008,22.66,22.66,0,0,1,9.617.66A15.466,15.466,0,0,1,27.326,31.521Z" transform="translate(-0.625 -0.625)" fill="#222"/>
</svg>
