<svg xmlns="http://www.w3.org/2000/svg" width="35.395" height="35.393" viewBox="0 0 35.395 35.393">
  <path id="Icon_awesome-facebook-messenger" data-name="Icon awesome-facebook-messenger" d="M18.362.625C8.369.625.625,7.928.625,17.792A16.778,16.778,0,0,0,6.2,30.49c.6.536.473.846.574,4.155A1.422,1.422,0,0,0,8.76,35.9c3.776-1.663,3.824-1.794,4.464-1.62,10.939,3.011,22.8-3.99,22.8-16.487C36.02,7.928,28.355.625,18.362.625Zm10.65,13.211L23.8,22.083a2.667,2.667,0,0,1-3.847.709l-4.145-3.1a1.07,1.07,0,0,0-1.284,0L8.934,23.931a.841.841,0,0,1-1.221-1.118l5.209-8.247a2.666,2.666,0,0,1,3.847-.709l4.143,3.1a1.07,1.07,0,0,0,1.284,0l5.6-4.237A.839.839,0,0,1,29.012,13.836Z" transform="translate(-0.625 -0.625)" fill="#60bfbf"/>
</svg>
