<svg xmlns="http://www.w3.org/2000/svg" width="34.614" height="34.707" viewBox="0 0 34.614 34.707">
  <path id="Icon_awesome-facebook" data-name="Icon awesome-facebook" d="M35.239,18.084a17.308,17.308,0,1,0-34.614,0,17.419,17.419,0,0,0,14.6,17.248v-12.2h-4.4V18.084h4.4V14.238c0-4.375,2.582-6.792,6.537-6.792a26.41,26.41,0,0,1,3.875.341V12.08H23.456a2.513,2.513,0,0,0-2.82,2.727v3.277h4.8l-.768,5.047H20.636v12.2A17.419,17.419,0,0,0,35.239,18.084Z" transform="translate(-0.625 -0.625)" fill="#222"/>
</svg>
