<svg id="Lager_1" class="hero__title" xmlns="http://www.w3.org/2000/svg" viewBox="0 0 1203.55 246.65">
    <path d="m57.96,88.44h83.75V5.02h58.29v223.45h-58.29v-90.45H57.96v90.45H0V5.02h57.96v83.42Z"/>
    <path d="m381.23,54.27h-69.01v37.19h65.33v49.25h-65.33v38.53h69.01v49.25h-126.97V5.02h126.97v49.25Z"/>
    <path d="m483.41,5.02v174.2l84.14,1v49.25l-142.1-1V5.02h57.96Z"/>
    <path d="m648.41,5.02v174.2l84.14,1v49.25l-142.1-1V5.02h57.96Z"/>
    <path d="m944.03,200.33c-22.78,21.78-54.94,33.17-88.11,33.17s-65.33-11.39-88.11-33.17c-23.79-22.78-35.18-53.94-35.18-83.42s11.39-61.31,35.18-83.75C790.6,11.39,822.76,0,855.92,0s65.33,11.39,88.11,33.17c23.79,22.45,35.18,53.94,35.18,83.75s-11.39,60.64-35.18,83.42Zm-133.33-126.3c-12.06,11.73-17.76,28.14-17.76,43.89,0,19.77,9.38,33.5,17.76,41.54,10.72,10.39,25.79,17.76,45.23,17.76s34.51-7.04,44.89-17.42c10.39-10.38,18.09-25.79,18.09-42.88s-7.71-32.83-18.09-42.88c-12.39-11.73-29.48-17.76-44.89-17.76s-33.17,5.69-45.23,17.76Z"/>
    <path d="m1026.43,224.45c-4.36-4.35-10.39-12.39-10.39-24.46s6.03-20.1,10.39-24.46c8.04-8.04,17.08-10.39,24.46-10.39,8.38,0,17.42,3.35,24.79,10.72,5.69,5.69,9.71,13.06,9.71,24.12s-4.02,18.43-10.05,24.46c-7.04,7.04-15.75,10.39-24.46,10.39-7.37,0-16.42-2.34-24.46-10.39Z"/>
</svg>