<svg xmlns="http://www.w3.org/2000/svg" width="36.107" height="35.204" viewBox="0 0 36.107 35.204">
  <path id="Icon_awesome-github" data-name="Icon awesome-github" d="M12.077,28.972c0,.146-.167.262-.379.262-.24.022-.408-.095-.408-.262,0-.146.167-.262.379-.262C11.887,28.688,12.077,28.8,12.077,28.972Zm-2.264-.328c-.051.146.095.313.313.357a.341.341,0,0,0,.451-.146c.044-.146-.095-.313-.313-.379A.374.374,0,0,0,9.813,28.644Zm3.218-.124c-.211.051-.357.189-.335.357.022.146.211.24.429.189s.357-.189.335-.335S13.241,28.5,13.03,28.52ZM17.82.625A17.456,17.456,0,0,0,0,18.387,18.251,18.251,0,0,0,12.339,35.8c.932.167,1.259-.408,1.259-.881,0-.451-.022-2.941-.022-4.47,0,0-5.1,1.092-6.166-2.169,0,0-.83-2.118-2.024-2.664,0,0-1.667-1.143.116-1.121a3.843,3.843,0,0,1,2.81,1.878,3.848,3.848,0,0,0,5.307,1.521,4.046,4.046,0,0,1,1.165-2.453C10.715,24.99,6.61,24.4,6.61,17.4a5.517,5.517,0,0,1,1.718-4.288,6.878,6.878,0,0,1,.189-4.943c1.521-.473,5.023,1.965,5.023,1.965a17.2,17.2,0,0,1,9.143,0s3.5-2.446,5.023-1.965a6.875,6.875,0,0,1,.189,4.943A5.659,5.659,0,0,1,29.773,17.4c0,7.025-4.288,7.585-8.357,8.044a4.3,4.3,0,0,1,1.238,3.378c0,2.453-.022,5.489-.022,6.086,0,.473.335,1.048,1.259.881a18.082,18.082,0,0,0,12.215-17.4C36.107,8.29,27.917.625,17.82.625ZM7.076,25.732c-.095.073-.073.24.051.379.116.116.284.167.379.073.095-.073.073-.24-.051-.379C7.338,25.688,7.17,25.637,7.076,25.732Zm-.786-.59c-.051.095.022.211.167.284a.217.217,0,0,0,.313-.051c.051-.095-.022-.211-.167-.284C6.457,25.048,6.34,25.07,6.29,25.142Zm2.359,2.592c-.116.095-.073.313.095.451.167.167.379.189.473.073.095-.095.051-.313-.095-.451C8.961,27.639,8.743,27.618,8.648,27.734Zm-.83-1.07c-.116.073-.116.262,0,.43s.313.24.408.167a.332.332,0,0,0,0-.451C8.124,26.642,7.935,26.569,7.818,26.664Z" transform="translate(0 -0.625)" fill="#60bfbf"/>
</svg>
