<svg xmlns="http://www.w3.org/2000/svg" width="35.573" height="35.573" viewBox="0 0 35.573 35.573">
  <path id="Icon_awesome-linkedin" data-name="Icon awesome-linkedin" d="M33.032,2.5H2.533A2.552,2.552,0,0,0,0,5.065V35.508a2.552,2.552,0,0,0,2.533,2.565h30.5a2.559,2.559,0,0,0,2.541-2.565V5.065A2.559,2.559,0,0,0,33.032,2.5ZM10.751,32.991H5.479V16.015h5.28V32.991ZM8.115,13.7a3.057,3.057,0,1,1,3.057-3.057A3.058,3.058,0,0,1,8.115,13.7Zm22.4,19.3H25.242V24.733c0-1.969-.04-4.5-2.739-4.5-2.747,0-3.168,2.144-3.168,4.359v8.4H14.062V16.015H19.12v2.319h.071a5.553,5.553,0,0,1,4.995-2.739c5.336,0,6.328,3.518,6.328,8.091Z" transform="translate(0 -2.5)" fill="#60bfbf"/>
</svg>
