<svg xmlns="http://www.w3.org/2000/svg" width="48.121" height="35.49" viewBox="0 0 48.121 35.49">
  <path id="laptop-code-solid" d="M4.812,37.07A4.951,4.951,0,0,1,9.624,32H38.5a4.951,4.951,0,0,1,4.812,5.07V57.35H38.5V37.07H9.624V57.35H4.812ZM0,61.406a1.484,1.484,0,0,1,1.444-1.521H46.677a1.484,1.484,0,0,1,1.444,1.521,5.937,5.937,0,0,1-5.774,6.084H5.774A5.937,5.937,0,0,1,0,61.406ZM21.128,46.022,18.8,48.477l2.331,2.456a1.966,1.966,0,0,1,0,2.686,1.74,1.74,0,0,1-2.549,0l-3.609-3.8a1.966,1.966,0,0,1,0-2.686l3.609-3.8a1.733,1.733,0,0,1,2.549,0,1.973,1.973,0,0,1,0,2.686Zm8.421-2.693,3.609,3.8a1.966,1.966,0,0,1,0,2.686l-3.609,3.8a1.733,1.733,0,0,1-2.549,0,1.973,1.973,0,0,1,0-2.686l2.331-2.456L27,46.022a1.966,1.966,0,0,1,0-2.686,1.74,1.74,0,0,1,2.549,0Z" transform="translate(0 -32)" fill="#222"/>
</svg>
