<svg xmlns="http://www.w3.org/2000/svg" width="39.663" height="41.788" viewBox="0 0 39.663 41.788">
  <path id="palette-solid" d="M39.663,20.894v.22a5.214,5.214,0,0,1-5.43,5H26.648a3.823,3.823,0,0,0-3.718,3.918,4.6,4.6,0,0,0,.077.808,13.146,13.146,0,0,0,.837,2.44,9.027,9.027,0,0,1,.937,3.428c0,2.6-1.673,4.954-4.137,5.06-.271.008-.542.016-.821.016C8.878,41.788,0,32.435,0,20.894S8.878,0,19.831,0,39.663,9.353,39.663,20.894ZM9.916,23.506a2.545,2.545,0,0,0-2.479-2.612,2.615,2.615,0,0,0,0,5.224A2.545,2.545,0,0,0,9.916,23.506Zm0-7.835a2.545,2.545,0,0,0,2.479-2.612,2.545,2.545,0,0,0-2.479-2.612,2.545,2.545,0,0,0-2.479,2.612A2.545,2.545,0,0,0,9.916,15.671ZM22.31,7.835a2.482,2.482,0,1,0-4.958,0,2.482,2.482,0,1,0,4.958,0Zm7.437,7.835a2.545,2.545,0,0,0,2.479-2.612,2.482,2.482,0,1,0-4.958,0A2.545,2.545,0,0,0,29.747,15.671Z" fill="#222"/>
</svg>
