<svg xmlns="http://www.w3.org/2000/svg" width="25.506" height="34" viewBox="0 0 25.506 34">
  <path id="Union_1" data-name="Union 1" d="M-2286.644-6882.388v-27.91l-8.978,8.778a1.4,1.4,0,0,1-.981.4,1.4,1.4,0,0,1-1-.415,1.381,1.381,0,0,1,.016-1.963l11.356-11.1,0,0,.015-.014.011-.011.014-.013.013-.011.013-.012.013-.011.013-.011.015-.012.012-.01.016-.012.011-.009.017-.013.01-.007.019-.013.01-.006.021-.013.007,0,.023-.014.006,0,.025-.014,0,0,.027-.015,0,0,.029-.014h0l.031-.015h0a1.4,1.4,0,0,1,.594-.131,1.394,1.394,0,0,1,.981.4l11.355,11.1a1.381,1.381,0,0,1,.015,1.963,1.4,1.4,0,0,1-1,.415,1.4,1.4,0,0,1-.98-.4l-8.978-8.778v27.91a1.393,1.393,0,0,1-1.4,1.389A1.393,1.393,0,0,1-2286.644-6882.388Z" transform="translate(2298 6915)" fill="#222"/>
</svg>
